<svg width="40" height="40" viewBox="0 0 40 40" fill="none" xmlns="http://www.w3.org/2000/svg">
<g clip-path="url(#clip0_860_5345)">
<rect width="40" height="40" rx="11" fill="url(#paint0_linear_860_5345)"/>
<g filter="url(#filter0_f_860_5345)">
<circle cx="75" cy="75" r="175" fill="#2A8EF0" fill-opacity="0.08"/>
</g>
<g clip-path="url(#clip1_860_5345)">
<path d="M27.1657 15.6339L33 12.25L20.5 5L8 12.25L13.8343 15.6339L20.5 11.7679L27.1657 15.6339Z" fill="white"/>
<path d="M27.1657 23.366L33 26.7499L20.5 33.9999V27.232L27.1657 23.366Z" fill="url(#paint1_linear_860_5345)"/>
<path d="M20.5 27.2321L13.8343 23.3661V15.6339L8 12.25V26.75L20.5 34V27.2321Z" fill="url(#paint2_linear_860_5345)"/>
<path d="M13.8344 23.3661L14.1462 23.1853L20.5 19.5L27.1657 23.3661L20.5 27.2321L13.8344 23.3661Z" fill="url(#paint3_linear_860_5345)"/>
<path d="M20.5 19.4999V11.7678L27.1657 15.6339V23.366L20.5 19.4999Z" fill="url(#paint4_linear_860_5345)"/>
<path d="M20.5 11.7678V19.4999L13.8344 23.366V15.6339L20.5 11.7678Z" fill="url(#paint5_linear_860_5345)"/>
</g>
</g>
<defs>
<filter id="filter0_f_860_5345" x="-260" y="-260" width="670" height="670" filterUnits="userSpaceOnUse" color-interpolation-filters="sRGB">
<feFlood flood-opacity="0" result="BackgroundImageFix"/>
<feBlend mode="normal" in="SourceGraphic" in2="BackgroundImageFix" result="shape"/>
<feGaussianBlur stdDeviation="80" result="effect1_foregroundBlur_860_5345"/>
</filter>
<linearGradient id="paint0_linear_860_5345" x1="38.7733" y1="-2.05076e-07" x2="26.4112" y2="50.8031" gradientUnits="userSpaceOnUse">
<stop stop-color="#353FEC"/>
<stop offset="1" stop-color="#C03BD4"/>
</linearGradient>
<linearGradient id="paint1_linear_860_5345" x1="27.8598" y1="27.7482" x2="10.062" y2="31.8419" gradientUnits="userSpaceOnUse">
<stop stop-color="white"/>
<stop offset="1" stop-color="#2363EB"/>
</linearGradient>
<linearGradient id="paint2_linear_860_5345" x1="14.2498" y1="29.2884" x2="14.2498" y2="0.950905" gradientUnits="userSpaceOnUse">
<stop stop-color="white"/>
<stop offset="1" stop-color="#2363EB"/>
</linearGradient>
<linearGradient id="paint3_linear_860_5345" x1="20.9388" y1="34.2271" x2="20.1521" y2="14.9323" gradientUnits="userSpaceOnUse">
<stop stop-color="white"/>
<stop offset="1" stop-color="#2363EB"/>
</linearGradient>
<linearGradient id="paint4_linear_860_5345" x1="28.1297" y1="17.2759" x2="10.2684" y2="18.4753" gradientUnits="userSpaceOnUse">
<stop stop-color="white"/>
<stop offset="1" stop-color="#2363EB"/>
</linearGradient>
<linearGradient id="paint5_linear_860_5345" x1="3.56539" y1="21.8182" x2="22.7168" y2="15.887" gradientUnits="userSpaceOnUse">
<stop stop-color="white"/>
<stop offset="1" stop-color="#2363EB"/>
</linearGradient>
<clipPath id="clip0_860_5345">
<rect width="40" height="40" rx="11" fill="white"/>
</clipPath>
<clipPath id="clip1_860_5345">
<rect width="25" height="29" fill="white" transform="translate(8 5)"/>
</clipPath>
</defs>
</svg>
